<?xml version="1.0" standalone="no"?>
<!DOCTYPE svg PUBLIC "-//W3C//DTD SVG 20010904//EN"
 "http://www.w3.org/TR/2001/REC-SVG-20010904/DTD/svg10.dtd">
<svg version="1.0" xmlns="http://www.w3.org/2000/svg"
 width="751.000000pt" height="395.000000pt" viewBox="0 0 751.000000 395.000000"
 preserveAspectRatio="xMidYMid meet">

<g transform="translate(0.000000,395.000000) scale(0.100000,-0.100000)"
fill="#000000" stroke="none">
<path d="M5371 3306 c-76 -111 -89 -136 -73 -136 5 0 40 41 78 90 37 50 71 87
74 83 4 -5 35 -45 70 -90 34 -46 66 -80 71 -77 5 3 6 11 2 17 -11 19 -136 201
-143 210 -4 5 -39 -39 -79 -97z"/>
<path d="M1760 3111 c-96 -19 -225 -106 -281 -188 -17 -26 -42 -59 -55 -73
-13 -14 -23 -34 -22 -45 0 -11 -7 -49 -18 -85 -13 -48 -18 -97 -17 -190 0
-107 4 -137 27 -206 101 -312 403 -457 676 -327 75 36 186 150 227 233 203
405 -35 895 -431 889 -39 -1 -87 -4 -106 -8z m224 -28 c110 -56 183 -174 216
-352 11 -58 14 -293 5 -351 -32 -193 -109 -330 -217 -384 -91 -46 -236 -30
-290 30 -35 40 -50 188 -27 265 19 61 50 83 120 85 74 2 89 14 89 70 0 33 4
44 15 44 21 0 30 27 15 45 -10 12 -8 18 10 33 20 16 21 21 9 40 -12 19 -11 24
9 45 29 31 28 39 -13 93 -31 40 -41 69 -36 98 7 37 -1 138 -13 171 l-16 40 7
-50 c11 -75 6 -170 -11 -228 -14 -48 -65 -130 -181 -295 -56 -79 -80 -154 -79
-254 l0 -78 -19 48 c-47 118 12 272 181 472 31 36 64 85 75 109 27 63 31 180
7 255 -10 33 -16 64 -13 69 8 13 120 -1 157 -20z m-172 5 c11 -31 7 -108 -7
-163 -18 -67 -28 -83 -136 -216 -42 -52 -93 -118 -113 -148 l-36 -53 0 35 c0
25 13 54 46 102 l46 68 -46 -32 c-25 -18 -46 -28 -46 -24 0 15 15 29 60 55 62
36 136 117 166 182 15 33 27 81 30 123 l5 68 -24 -57 c-35 -82 -122 -183 -187
-218 -22 -12 -22 -11 -16 16 4 16 15 33 24 38 41 22 130 124 144 167 18 54 78
92 90 57z"/>
<path d="M2481 3103 c65 -26 64 -16 66 -558 2 -535 1 -548 -52 -575 -27 -14 5
-15 369 -18 220 -1 400 -1 402 0 1 2 9 48 18 103 9 55 19 112 22 128 8 41 -10
33 -44 -20 -77 -120 -174 -178 -319 -193 -109 -12 -214 -12 -231 -1 -18 11
-13 1065 5 1097 13 22 66 47 77 37 3 -4 6 -1 6 5 0 9 -48 12 -177 11 -168 -1
-176 -2 -142 -16z"/>
<path d="M3385 3110 c3 -5 12 -10 19 -10 7 0 21 -9 32 -21 18 -20 19 -45 21
-523 2 -514 -1 -559 -37 -577 -8 -4 -26 -11 -39 -16 -16 -6 34 -9 151 -9 97 1
174 3 172 6 -3 2 -19 9 -37 15 -57 18 -58 32 -55 586 3 472 4 498 22 518 11
12 25 21 32 21 7 0 16 5 19 10 4 7 -48 10 -150 10 -102 0 -154 -3 -150 -10z"/>
<path d="M3865 3055 l25 -66 -1 -467 c-1 -476 -4 -525 -39 -543 -8 -4 -26 -12
-40 -17 -19 -8 -1 -11 84 -11 60 -1 106 2 102 6 -4 5 -11 8 -14 8 -41 3 -62
18 -71 53 -13 45 -15 934 -2 912 7 -11 295 -789 353 -952 10 -28 11 -28 94
-28 46 0 84 1 84 3 0 1 -9 31 -20 65 -45 145 -19 258 109 471 83 138 110 192
143 286 l28 80 -3 -415 c-2 -451 -3 -456 -58 -467 -70 -14 -27 -20 136 -19 99
1 175 5 175 10 0 5 -3 7 -6 3 -12 -12 -62 15 -73 41 -9 20 -12 155 -11 536 1
546 2 556 50 556 11 0 20 5 20 10 0 6 -59 10 -157 10 -86 0 -153 -3 -150 -6 4
-4 17 -12 29 -18 38 -19 49 -54 43 -131 -10 -138 -56 -252 -200 -505 -86 -152
-109 -215 -115 -320 0 -8 -83 208 -183 480 l-183 495 -87 3 -86 3 24 -66z"/>
<path d="M5050 3110 c0 -5 8 -10 18 -10 11 0 27 -9 38 -21 18 -20 19 -44 20
-513 1 -282 -2 -509 -8 -534 -8 -38 -15 -46 -51 -62 -42 -19 -40 -19 369 -19
l412 -1 11 83 c7 45 17 106 23 135 5 30 6 57 3 60 -4 4 -10 1 -12 -6 -12 -32
-96 -134 -138 -166 -82 -62 -141 -78 -307 -84 l-148 -4 0 321 0 321 70 0 c149
0 218 -35 272 -140 14 -28 29 -47 32 -42 7 12 3 382 -4 381 -3 0 -18 -28 -35
-62 -42 -86 -87 -109 -231 -115 l-104 -5 0 242 0 241 103 0 c249 -1 349 -43
457 -193 38 -53 52 -59 45 -19 -17 94 -35 208 -35 215 0 4 -180 7 -400 7 -260
0 -400 -3 -400 -10z"/>
<path d="M2400 1314 l0 -265 28 3 27 3 1 123 0 123 31 31 c39 39 87 43 115 9
15 -20 18 -42 18 -157 l0 -134 30 0 31 0 -2 131 c0 73 -5 146 -10 163 -24 86
-121 102 -197 32 l-24 -21 7 92 c8 110 3 133 -31 133 l-24 0 0 -266z"/>
<path d="M3936 1563 c-7 -21 -5 -482 2 -500 6 -19 42 -16 42 3 0 12 5 14 18 9
89 -38 124 -36 174 11 35 34 51 82 51 154 0 109 -38 169 -115 177 -35 4 -50 0
-80 -21 l-38 -25 0 104 c0 105 0 105 -24 105 -15 0 -27 -7 -30 -17z m178 -204
c62 -29 72 -174 16 -231 -34 -34 -76 -37 -114 -7 -25 19 -26 25 -26 108 0 94
7 108 60 130 33 13 35 13 64 0z"/>
<path d="M4952 1553 c3 -26 6 -28 53 -29 l50 -1 5 -211 c5 -210 5 -212 30
-237 29 -28 69 -36 118 -23 25 7 32 14 32 33 0 23 -2 24 -48 18 -76 -9 -77 -7
-78 251 l-1 221 -82 3 -82 3 3 -28z"/>
<path d="M2985 1402 c-44 -28 -65 -55 -79 -104 -27 -88 4 -188 70 -228 44 -28
125 -31 172 -6 33 17 36 23 26 50 -5 14 -9 14 -34 1 -38 -20 -110 -19 -139 1
-20 15 -51 69 -51 92 0 4 48 8 108 9 59 1 115 2 125 2 39 2 8 131 -42 175 -31
28 -117 33 -156 8z m117 -43 c22 -12 52 -74 42 -90 -7 -11 -184 -7 -184 4 0 4
0 14 0 23 0 9 14 29 31 45 33 31 74 38 111 18z"/>
<path d="M3585 1405 c-16 -9 -40 -28 -52 -43 -23 -27 -23 -27 -24 -4 -1 12 -2
28 -3 35 0 6 -11 13 -23 15 l-23 3 0 -180 0 -181 25 0 25 0 0 110 0 110 44 46
c43 44 46 46 95 43 46 -4 51 -2 56 20 4 15 1 27 -7 32 -21 14 -80 10 -113 -6z"/>
<path d="M4524 1407 c-17 -7 -41 -19 -53 -27 -19 -13 -20 -17 -9 -33 13 -17
15 -17 58 2 25 11 55 21 66 21 31 0 74 -37 74 -65 0 -20 -7 -24 -61 -34 -112
-19 -159 -57 -159 -128 0 -47 44 -93 90 -95 57 -1 66 1 103 26 l36 25 3 -22
c2 -14 11 -23 26 -25 22 -3 22 -3 22 133 0 153 -12 195 -61 220 -33 18 -92 18
-135 2z m136 -217 c0 -46 -3 -52 -32 -70 -72 -44 -149 -13 -126 50 9 28 49 50
113 63 43 10 45 8 45 -43z"/>
</g>
</svg>
